<mxfile host="65bd71144e">
    <diagram id="UaVE1RRSmBrK4GoVeOv7" name="PÃ¡gina-1">
        <mxGraphModel dx="637" dy="397" grid="1" gridSize="10" guides="1" tooltips="1" connect="1" arrows="1" fold="1" page="1" pageScale="1" pageWidth="2339" pageHeight="3300" math="0" shadow="0">
            <root>
                <mxCell id="0"/>
                <mxCell id="1" parent="0"/>
                <mxCell id="3" style="edgeStyle=none;html=1;" edge="1" parent="1" source="2">
                    <mxGeometry relative="1" as="geometry">
                        <mxPoint x="290" y="120" as="targetPoint"/>
                    </mxGeometry>
                </mxCell>
                <mxCell id="2" value="INICIO" style="ellipse;whiteSpace=wrap;html=1;fillColor=#f0a30a;fontColor=#000000;strokeColor=#BD7000;" vertex="1" parent="1">
                    <mxGeometry x="240" y="10" width="100" height="50" as="geometry"/>
                </mxCell>
                <mxCell id="5" style="edgeStyle=none;html=1;" edge="1" parent="1" source="4" target="6">
                    <mxGeometry relative="1" as="geometry">
                        <mxPoint x="290" y="200" as="targetPoint"/>
                    </mxGeometry>
                </mxCell>
                <mxCell id="4" value="X , Y ,Z" style="shape=parallelogram;perimeter=parallelogramPerimeter;whiteSpace=wrap;html=1;fixedSize=1;fillColor=#647687;fontColor=#ffffff;strokeColor=#314354;" vertex="1" parent="1">
                    <mxGeometry x="230" y="120" width="120" height="40" as="geometry"/>
                </mxCell>
                <mxCell id="6" value="X+Y=Z" style="rhombus;whiteSpace=wrap;html=1;fillColor=#fa6800;fontColor=#000000;strokeColor=#C73500;" vertex="1" parent="1">
                    <mxGeometry x="250" y="200" width="80" height="80" as="geometry"/>
                </mxCell>
                <mxCell id="7" value="" style="endArrow=none;html=1;exitX=1;exitY=0.5;exitDx=0;exitDy=0;" edge="1" parent="1" source="6">
                    <mxGeometry width="50" height="50" relative="1" as="geometry">
                        <mxPoint x="340" y="250" as="sourcePoint"/>
                        <mxPoint x="480" y="280" as="targetPoint"/>
                        <Array as="points">
                            <mxPoint x="480" y="240"/>
                        </Array>
                    </mxGeometry>
                </mxCell>
                <mxCell id="8" value="" style="endArrow=none;html=1;entryX=0;entryY=0.5;entryDx=0;entryDy=0;" edge="1" parent="1" target="6">
                    <mxGeometry width="50" height="50" relative="1" as="geometry">
                        <mxPoint x="120" y="280" as="sourcePoint"/>
                        <mxPoint x="160" y="230" as="targetPoint"/>
                        <Array as="points">
                            <mxPoint x="120" y="240"/>
                        </Array>
                    </mxGeometry>
                </mxCell>
                <mxCell id="9" value="Si es igual" style="shape=document;whiteSpace=wrap;html=1;boundedLbl=1;fillColor=#76608a;fontColor=#ffffff;strokeColor=#432D57;" vertex="1" parent="1">
                    <mxGeometry x="420" y="280" width="120" height="80" as="geometry"/>
                </mxCell>
                <mxCell id="10" value="No son iguales" style="shape=document;whiteSpace=wrap;html=1;boundedLbl=1;fillColor=#76608a;fontColor=#ffffff;strokeColor=#432D57;" vertex="1" parent="1">
                    <mxGeometry x="70" y="280" width="120" height="80" as="geometry"/>
                </mxCell>
                <mxCell id="11" value="" style="endArrow=none;html=1;exitX=0.408;exitY=0.938;exitDx=0;exitDy=0;exitPerimeter=0;" edge="1" parent="1" source="10">
                    <mxGeometry width="50" height="50" relative="1" as="geometry">
                        <mxPoint x="180" y="460" as="sourcePoint"/>
                        <mxPoint x="480" y="350" as="targetPoint"/>
                        <Array as="points">
                            <mxPoint x="120" y="520"/>
                            <mxPoint x="480" y="520"/>
                        </Array>
                    </mxGeometry>
                </mxCell>
                <mxCell id="12" value="" style="endArrow=classic;html=1;" edge="1" parent="1">
                    <mxGeometry width="50" height="50" relative="1" as="geometry">
                        <mxPoint x="300" y="520" as="sourcePoint"/>
                        <mxPoint x="300" y="570" as="targetPoint"/>
                    </mxGeometry>
                </mxCell>
                <mxCell id="13" value="FIN" style="ellipse;whiteSpace=wrap;html=1;fillColor=#e51400;fontColor=#ffffff;strokeColor=#B20000;" vertex="1" parent="1">
                    <mxGeometry x="250" y="570" width="100" height="50" as="geometry"/>
                </mxCell>
                <mxCell id="14" value="FALSE" style="text;html=1;align=center;verticalAlign=middle;resizable=0;points=[];autosize=1;strokeColor=none;fillColor=none;" vertex="1" parent="1">
                    <mxGeometry x="170" y="220" width="60" height="30" as="geometry"/>
                </mxCell>
                <mxCell id="15" value="TRUE" style="text;html=1;align=center;verticalAlign=middle;resizable=0;points=[];autosize=1;strokeColor=none;fillColor=none;" vertex="1" parent="1">
                    <mxGeometry x="350" y="220" width="60" height="30" as="geometry"/>
                </mxCell>
            </root>
        </mxGraphModel>
    </diagram>
</mxfile>